# Blender 3.4.0
# www.blender.org
mtllib Ripple plane.mtl
o Plane
v -0.671875 0.000000 0.671875
v 0.671875 0.000000 0.671875
v -0.671875 0.000000 -0.671875
v 0.671875 0.000000 -0.671875
v -0.916667 0.000000 0.000000
v 0.000000 0.000000 0.916667
v 0.916667 0.000000 0.000000
v 0.000000 0.000000 -0.916667
v 0.000000 0.000000 -0.000000
vn -0.0000 1.0000 -0.0000
vt 0.999900 0.732908
vt 0.267092 0.999900
vt 0.732908 0.000100
vt 0.000100 0.267092
vt 0.999900 0.317866
vt 0.682134 0.999900
vt 0.000100 0.682134
vt 0.317866 0.000100
vt 0.500000 0.500000
s 0
f 1/1/1 6/6/1 9/9/1 5/5/1
f 6/6/1 2/2/1 7/7/1 9/9/1
f 9/9/1 7/7/1 4/4/1 8/8/1
f 5/5/1 9/9/1 8/8/1 3/3/1
